<?xml version="1.0" encoding="utf-8"?>
<!-- Generator: Adobe Illustrator 25.0.0, SVG Export Plug-In . SVG Version: 6.00 Build 0)  -->
<svg version="1.1" id="Layer_1" xmlns="http://www.w3.org/2000/svg" xmlns:xlink="http://www.w3.org/1999/xlink" x="0px" y="0px"
	 viewBox="0 0 200 200" style="enable-background:new 0 0 200 200;" xml:space="preserve">
<style type="text/css">
	.st0{fill:#231F20;}
</style>
<path class="st0" d="M85,54c-3.7-1.3-6.8-1.2-9.6-0.9c-2.7,0.4-5.1,1.2-7.1,2.2c-4,2.2-6.5,5.6-8.1,9.2c-3.6,7.2-6.3,14.9-7.5,22.8
	c-2.6,15.8,1.8,32.6,12,45.6c5.1,6.5,11.3,12.2,18.2,17c7,4.7,14.7,8.2,22.8,10.9c2,0.6,4.1,1.2,6.1,1.8l6.2,1.2
	c2.1,0.5,4.2,0.6,6.3,0.9c2.1,0.2,4.2,0.6,6.4,0.5c8.5,0.5,17-0.5,25.4-2l0.1,0c0.5-0.1,1,0.3,1.1,0.8c0.1,0.5-0.3,1.1-0.8,1.1
	c0,0,0,0,0,0l-6.4,1l-3.2,0.5l-3.2,0.2c-2.2,0.1-4.3,0.4-6.5,0.5l-6.5,0c-8.6-0.3-17.4-1.3-25.7-3.8c-8.4-2.4-16.6-5.7-24.1-10.2
	c-7.5-4.5-14.5-10.1-20.4-16.8c-1.4-1.7-3-3.3-4.2-5.2c-1.3-1.9-2.6-3.7-3.8-5.6l-3.2-6c-1-2-1.7-4.2-2.6-6.3
	c-3-8.6-4.3-17.9-3.8-27.1c0.5-9.2,2.6-18.3,5.9-26.8c0.8-2.2,1.8-4.2,2.4-6.5c0.6-2.3,1.1-4.6,1.2-7.2c0.1-1.3,0.1-2.7,0.1-4.1
	c0-0.7,0-1.4-0.1-2.2c0-0.7-0.1-1.5-0.2-2.3c-0.3-3.2-0.9-6.6-2-11.3c7.7-9.6,21.8-11.2,31.5-3.5C91.2,30.3,92.7,44.4,85,54z"/>
</svg>
