<?xml version="1.0" encoding="utf-8"?>
<!-- Generator: Adobe Illustrator 25.0.0, SVG Export Plug-In . SVG Version: 6.00 Build 0)  -->
<svg version="1.1" id="Layer_1" xmlns="http://www.w3.org/2000/svg" xmlns:xlink="http://www.w3.org/1999/xlink" x="0px" y="0px"
	 viewBox="0 0 200 200" style="enable-background:new 0 0 200 200;" xml:space="preserve">
<style type="text/css">
	.st0{fill:#231F20;}
</style>
<path class="st0" d="M93.2,70.8c-1,0.7-2.2,1.8-3.3,2.9c-1.1,1.1-2.1,2.3-3.2,3.5c-1,1.3-2,2.5-2.9,3.8l-1.4,2l-1.2,2
	c-3.3,5.5-5.7,11.3-7.1,17.2c-1.4,5.9-1.7,11.9-0.6,18c0.4,1.5,0.6,3,1,4.5l1.5,4.5l2.1,4.4c0.7,1.5,1.7,2.8,2.5,4.3
	c3.6,5.6,8.4,10.8,13.9,15.3c5.5,4.5,11.9,8.1,18.7,11l5.2,2l5.4,1.6c1.8,0.6,3.7,0.9,5.5,1.3c1.9,0.3,3.7,0.8,5.6,1l5.7,0.6
	c1.9,0.1,3.8,0.1,5.8,0.2l2.9,0.1l2.9-0.2l5.8-0.3l0.1,0c0.5,0,0.9,0.3,0.9,0.8c0,0.4-0.3,0.8-0.7,0.9l-5.8,1.5l-2.9,0.7l-3,0.5
	c-2,0.3-4,0.7-6,1l-6.1,0.5c-8.1,0.3-16.4,0.1-24.6-1.7c-8.2-1.7-16.3-4.3-24-8.2c-7.6-4-14.9-9.1-21.3-15.5
	c-1.5-1.7-3.2-3.2-4.6-5.1c-1.4-1.8-2.8-3.7-4.2-5.6l-3.6-6.1c-1.1-2.1-2-4.3-3-6.5c-3.6-8.9-5.3-18.8-5.2-28.5
	c0.1-9.7,2.1-19.2,5.1-28c1.5-4.5,3.2-8.8,5.2-13c1-2.1,2-4.3,3.1-6.4c1.1-2.1,2.2-4.2,3.7-6.6l1.7-2.8c6-10,19-13.2,29-7.1
	s13.2,19,7.1,29C97.7,67,95.6,69.1,93.2,70.8z"/>
</svg>
