<?xml version="1.0" encoding="utf-8"?>
<!-- Generator: Adobe Illustrator 25.0.0, SVG Export Plug-In . SVG Version: 6.00 Build 0)  -->
<svg version="1.1" id="Layer_1" xmlns="http://www.w3.org/2000/svg" xmlns:xlink="http://www.w3.org/1999/xlink" x="0px" y="0px"
	 viewBox="0 0 200 200" style="enable-background:new 0 0 200 200;" xml:space="preserve">
<style type="text/css">
	.st0{fill:#231F20;}
</style>
<path class="st0" d="M25.7,111.3c1-4.1,2.7-7.9,4.7-11.4c2-3.5,4.5-6.8,7.3-9.8c5.6-6,12.9-10.9,21.1-14c2-0.8,4.1-1.5,6.3-2
	c1.1-0.3,2.2-0.5,3.2-0.8L70,73c0.6-0.1,1.1-0.2,1.7-0.2l3.3-0.4c1.1-0.1,2.3-0.3,3.4-0.3c2.2,0,4.5-0.2,6.7,0
	c8.9,0.4,16.9,2.5,23.6,4.6c6.7,2.2,12.1,4.4,16.9,6.4c4.8,2,9.2,3.7,14.2,5.4c2.5,0.7,5.2,1.6,8,2.3c2.8,0.7,5.8,1.4,9,2
	c3.2,0.6,6.5,1.2,10.1,1.7c3.6,0.5,7.4,1,11.6,1.6c-1.6,4-3.8,7.4-6.3,10.6c-2.5,3.2-5.5,6.1-8.7,8.6c-3.2,2.5-6.8,4.7-10.6,6.5
	c-3.8,1.9-7.8,3.1-12,4.3c-8.4,2.1-17.4,2.3-25.6,1.2c-8.2-1-15.5-3.2-21.6-5.2c-6.1-2-10.9-3.8-15.3-5.3c-4.4-1.5-8.7-2.7-13.7-3.8
	c-5-1-10.6-1.7-17.1-1.9c-3.2-0.1-6.6-0.2-10.3-0.1C33.8,111.2,30,111.3,25.7,111.3z"/>
</svg>
