<?xml version="1.0" encoding="utf-8"?>
<!-- Generator: Adobe Illustrator 25.0.0, SVG Export Plug-In . SVG Version: 6.00 Build 0)  -->
<svg version="1.1" id="Layer_1" xmlns="http://www.w3.org/2000/svg" xmlns:xlink="http://www.w3.org/1999/xlink" x="0px" y="0px"
	 viewBox="0 0 200 200" style="enable-background:new 0 0 200 200;" xml:space="preserve">
<g>
	<path d="M124.78,101.22c0.07,9.87-1.55,19.75-5.4,29.63c-1.92,4.93-4.43,9.87-7.65,14.81c-1.62,2.47-3.46,4.94-5.53,7.41
		c-2.07,2.46-4.34,4.93-7.25,7.4h-1c-2.9-2.47-5.18-4.94-7.24-7.4c-2.07-2.47-3.91-4.94-5.53-7.41c-3.22-4.94-5.73-9.88-7.65-14.81
		c-3.85-9.88-5.47-19.76-5.4-29.63c0.08-9.88,1.76-19.75,5.64-29.63c1.92-4.94,4.42-9.88,7.62-14.81c1.6-2.47,3.41-4.94,5.45-7.41
		c2.04-2.47,4.26-4.94,7.11-7.41h1c2.85,2.47,5.08,4.94,7.12,7.41c2.04,2.47,3.85,4.94,5.45,7.41c3.2,4.93,5.69,9.87,7.62,14.81
		C123.02,81.47,124.7,91.34,124.78,101.22z"/>
</g>
</svg>
